<svg xmlns="http://www.w3.org/2000/svg" width="32" height="32" viewBox="0 0 32 32" fill="none">
  <path d="M28.1333 8.47787L17.3478 26.7067C17.1 27.1556 16.4556 27.1556 16.2078 26.7067L5.42222 8.47787C5.15111 7.99341 5.52444 7.38898 6.08889 7.48898L16.3111 9.51564C16.4 9.53342 16.4889 9.53342 16.5778 9.51564L26.8 7.48898C27.3644 7.38898 27.7378 7.99341 27.4667 8.47787Z" fill="#646CFF"/>
  <path d="M20.7111 4.42235L16.9889 5.07791C16.8667 5.10235 16.7444 5.10235 16.6222 5.07791L12.9 4.42235C12.5178 4.35346 12.2733 4.84457 12.5267 5.12457L16.3644 9.35791C16.5333 9.54457 16.8222 9.54457 16.9911 9.35791L20.8289 5.12457C21.0822 4.84457 20.8378 4.35346 20.4556 4.42235H20.7111Z" fill="#646CFF"/>
</svg> 